<svg width="1000" height="1000" viewBox="0 0 1000 1000" fill="none" xmlns="http://www.w3.org/2000/svg">
<g clip-path="url(#clip0_1_2)">
<path d="M601.556 42L500 245.822L373.056 118.421V296.752L119.167 245.822L322.278 449.644L43 602.485H347.667L195.333 908.218L500 704.396L779.278 959.174L703.111 602.485H957L753.889 449.619L957 220.332L652.333 296.752L601.556 42Z" fill="#668413"/>
<path d="M624.761 370.126L671.984 358.269L804.667 324.985L718.827 421.869L685.339 459.698L725.707 490.038L799.97 545.944H649.718L661.727 602.257L701.105 786.58L552.707 651.206L525.897 626.732L495.735 646.916L362.697 735.929L423.783 613.352L457.347 545.944H285.819L381.256 493.668L435.715 463.913L391.869 419.863L314.585 342.351L396.363 358.752L451.863 369.898V262.528L488.677 299.469L534.224 345.143L562.99 287.358L595.31 222.464" fill="#4A5C15"/>
<path d="M589.166 405.086L608.639 400.186L663.428 386.451L627.985 426.464L614.148 442.078L630.804 454.595L661.473 477.673H599.448L604.399 500.93L620.673 577.02L559.41 521.139L548.315 511.034L535.875 519.362L480.958 556.125L506.17 505.5L520.032 477.673H449.222L488.651 456.093L511.12 443.805L493.018 425.626L461.104 393.611L494.846 400.39L517.772 404.985V360.681L532.98 375.915L551.768 394.779L563.65 370.938L576.979 344.128" fill="#F5F8FA"/>
</g>
<path d="M560.389 319.333C476.265 256.259 452.722 211.667 416.833 211.667C380.944 211.667 380.944 229.611 363 229.611C345.056 229.611 345.056 211.667 309.167 211.667C273.278 211.667 249.717 256.259 165.611 319.333C93.8333 373.167 40 373.167 40 409.056C40 444.944 129.722 516.722 183.556 570.556C219.444 606.444 273.278 642.333 363 642.333C452.722 642.333 506.556 606.444 542.444 570.556C596.278 516.722 686 444.944 686 409.056C686 373.167 632.167 373.167 560.389 319.333Z" fill="#C1E361"/>
<path d="M549.425 382.139C470.003 355.85 416.833 344.761 363 344.761C309.167 344.761 256.015 355.85 176.575 382.139C108.781 404.569 57.9445 394.108 57.9445 409.056C57.9445 424.021 219.444 498.778 363 498.778C506.556 498.778 668.056 424.021 668.056 409.056C668.056 394.108 617.201 404.569 549.425 382.139Z" fill="#662113"/>
<path d="M549.425 382.139C470.003 355.85 416.833 344.761 363 344.761C309.167 344.761 256.015 355.85 176.575 382.139C111.545 403.654 62.2511 394.969 58.3213 407.405C102.357 414.313 221.957 395.848 363 395.848C504.043 395.848 623.625 414.313 667.679 407.405C663.749 394.969 614.438 403.654 549.425 382.139Z" fill="white"/>
<path d="M856 806.778C856 825.024 841.191 839.833 822.944 839.833H294.056C275.809 839.833 261 825.024 261 806.778V542.333C261 524.087 275.809 509.278 294.056 509.278H822.944C841.191 509.278 856 524.087 856 542.333V806.778Z" fill="#292F33"/>
<path d="M351.903 658.028C351.903 667.168 344.498 674.556 335.375 674.556H318.847C309.724 674.556 302.319 667.168 302.319 658.028V641.5C302.319 632.36 309.724 624.972 318.847 624.972H335.375C344.498 624.972 351.903 632.36 351.903 641.5V658.028ZM418.014 658.028C418.014 667.168 410.609 674.556 401.486 674.556H384.958C375.835 674.556 368.431 667.168 368.431 658.028V641.5C368.431 632.36 375.835 624.972 384.958 624.972H401.486C410.609 624.972 418.014 632.36 418.014 641.5V658.028ZM484.125 658.028C484.125 667.168 476.721 674.556 467.597 674.556H451.069C441.946 674.556 434.542 667.168 434.542 658.028V641.5C434.542 632.36 441.946 624.972 451.069 624.972H467.597C476.721 624.972 484.125 632.36 484.125 641.5V658.028ZM550.236 658.028C550.236 667.168 542.832 674.556 533.708 674.556H517.181C508.057 674.556 500.653 667.168 500.653 658.028V641.5C500.653 632.36 508.057 624.972 517.181 624.972H533.708C542.832 624.972 550.236 632.36 550.236 641.5V658.028ZM616.347 658.028C616.347 667.168 608.959 674.556 599.819 674.556H583.292C574.152 674.556 566.764 667.168 566.764 658.028V641.5C566.764 632.36 574.152 624.972 583.292 624.972H599.819C608.959 624.972 616.347 632.36 616.347 641.5V658.028ZM682.458 658.028C682.458 667.168 675.07 674.556 665.931 674.556H649.403C640.263 674.556 632.875 667.168 632.875 658.028V641.5C632.875 632.36 640.263 624.972 649.403 624.972H665.931C675.07 624.972 682.458 632.36 682.458 641.5V658.028ZM748.569 658.028C748.569 667.168 741.181 674.556 732.042 674.556H715.514C706.374 674.556 698.986 667.168 698.986 658.028V641.5C698.986 632.36 706.374 624.972 715.514 624.972H732.042C741.181 624.972 748.569 632.36 748.569 641.5V658.028ZM814.681 658.028C814.681 667.168 807.293 674.556 798.153 674.556H781.625C772.485 674.556 765.097 667.168 765.097 658.028V641.5C765.097 632.36 772.485 624.972 781.625 624.972H798.153C807.293 624.972 814.681 632.36 814.681 641.5V658.028ZM384.958 724.139C384.958 733.279 377.554 740.667 368.431 740.667H351.903C342.779 740.667 335.375 733.279 335.375 724.139V707.611C335.375 698.471 342.779 691.083 351.903 691.083H368.431C377.554 691.083 384.958 698.471 384.958 707.611V724.139ZM451.069 724.139C451.069 733.279 443.665 740.667 434.542 740.667H418.014C408.891 740.667 401.486 733.279 401.486 724.139V707.611C401.486 698.471 408.891 691.083 418.014 691.083H434.542C443.665 691.083 451.069 698.471 451.069 707.611V724.139ZM517.181 724.139C517.181 733.279 509.776 740.667 500.653 740.667H484.125C475.002 740.667 467.597 733.279 467.597 724.139V707.611C467.597 698.471 475.002 691.083 484.125 691.083H500.653C509.776 691.083 517.181 698.471 517.181 707.611V724.139ZM583.292 724.139C583.292 733.279 575.904 740.667 566.764 740.667H550.236C541.113 740.667 533.708 733.279 533.708 724.139V707.611C533.708 698.471 541.113 691.083 550.236 691.083H566.764C575.904 691.083 583.292 698.471 583.292 707.611V724.139ZM649.403 724.139C649.403 733.279 642.015 740.667 632.875 740.667H616.347C607.207 740.667 599.819 733.279 599.819 724.139V707.611C599.819 698.471 607.207 691.083 616.347 691.083H632.875C642.015 691.083 649.403 698.471 649.403 707.611V724.139ZM715.514 724.139C715.514 733.279 708.126 740.667 698.986 740.667H682.458C673.318 740.667 665.931 733.279 665.931 724.139V707.611C665.931 698.471 673.318 691.083 682.458 691.083H698.986C708.126 691.083 715.514 698.471 715.514 707.611V724.139ZM781.625 724.139C781.625 733.279 774.237 740.667 765.097 740.667H748.569C739.43 740.667 732.042 733.279 732.042 724.139V707.611C732.042 698.471 739.43 691.083 748.569 691.083H765.097C774.237 691.083 781.625 698.471 781.625 707.611V724.139ZM426.278 790.25C426.278 799.39 418.873 806.778 409.75 806.778H376.694C367.571 806.778 360.167 799.39 360.167 790.25V773.722C360.167 764.582 367.571 757.194 376.694 757.194H409.75C418.873 757.194 426.278 764.582 426.278 773.722V790.25ZM756.833 790.25C756.833 799.39 749.445 806.778 740.306 806.778H707.25C698.11 806.778 690.722 799.39 690.722 790.25V773.722C690.722 764.582 698.11 757.194 707.25 757.194H740.306C749.445 757.194 756.833 764.582 756.833 773.722V790.25ZM674.194 790.25C674.194 799.39 666.807 806.778 657.667 806.778H459.333C450.21 806.778 442.806 799.39 442.806 790.25V773.722C442.806 764.582 450.21 757.194 459.333 757.194H657.667C666.807 757.194 674.194 764.582 674.194 773.722V790.25ZM351.903 560.233C351.903 569.356 344.498 576.761 335.375 576.761H318.847C309.724 576.761 302.319 569.356 302.319 560.233C302.319 551.11 309.724 543.705 318.847 543.705H335.375C344.498 543.705 351.903 551.11 351.903 560.233ZM418.014 560.233C418.014 569.356 410.609 576.761 401.486 576.761H384.958C375.835 576.761 368.431 569.356 368.431 560.233C368.431 551.11 375.835 543.705 384.958 543.705H401.486C410.609 543.705 418.014 551.11 418.014 560.233ZM484.125 560.233C484.125 569.356 476.721 576.761 467.597 576.761H451.069C441.946 576.761 434.542 569.356 434.542 560.233C434.542 551.11 441.946 543.705 451.069 543.705H467.597C476.721 543.705 484.125 551.11 484.125 560.233ZM550.236 560.233C550.236 569.356 542.832 576.761 533.708 576.761H517.181C508.057 576.761 500.653 569.356 500.653 560.233C500.653 551.11 508.057 543.705 517.181 543.705H533.708C542.832 543.705 550.236 551.11 550.236 560.233ZM616.347 560.233C616.347 569.356 608.959 576.761 599.819 576.761H583.292C574.152 576.761 566.764 569.356 566.764 560.233C566.764 551.11 574.152 543.705 583.292 543.705H599.819C608.959 543.705 616.347 551.11 616.347 560.233ZM682.458 560.233C682.458 569.356 675.07 576.761 665.931 576.761H649.403C640.263 576.761 632.875 569.356 632.875 560.233C632.875 551.11 640.263 543.705 649.403 543.705H665.931C675.07 543.705 682.458 551.11 682.458 560.233ZM748.569 560.233C748.569 569.356 741.181 576.761 732.042 576.761H715.514C706.374 576.761 698.986 569.356 698.986 560.233C698.986 551.11 706.374 543.705 715.514 543.705H732.042C741.181 543.705 748.569 551.11 748.569 560.233ZM814.681 560.233C814.681 569.356 807.293 576.761 798.153 576.761H781.625C772.485 576.761 765.097 569.356 765.097 560.233C765.097 551.11 772.485 543.705 781.625 543.705H798.153C807.293 543.705 814.681 551.11 814.681 560.233Z" fill="white"/>
<defs>
<clipPath id="clip0_1_2">
<rect width="914" height="914" fill="white" transform="translate(43 42)"/>
</clipPath>
</defs>
</svg>
